<svg id="Layer_1" data-name="Layer 1" xmlns="http://www.w3.org/2000/svg" viewBox="0 0 3988.17 1536"><defs><style>.cls-1{fill:#fff;}</style></defs><title>logo</title><polygon class="cls-1" points="698.52 666.31 809.96 573.45 698.52 472.82 698.52 666.31"/><path class="cls-1" d="M660.86,261.46c-279.75,0-506.54,226.78-506.54,506.54s226.78,506.54,506.54,506.54S1167.4,1047.75,1167.4,768,940.62,261.46,660.86,261.46ZM910,610.31,698.52,786.5v380.57a46.17,46.17,0,0,1-92.34,0V863.45L470.88,976.2a46.17,46.17,0,0,1-59.11-70.94l194.41-162V368.92a46.17,46.17,0,0,1,77.11-34.27l228,205.92A46.17,46.17,0,0,1,910,610.31Z"/><path class="cls-1" d="M1403.67,953.69h-98v-377h156q63.49,0,97.25,33t33.75,93q0,60-33.75,93t-97.25,33h-58Zm0-204h32.5q54,0,54-47t-54-47h-32.5Z"/><path class="cls-1" d="M1901.66,673.19q-16-13-32-19.25a85,85,0,0,0-31-6.25q-19,0-31,9t-12,23.5q0,10,6,16.5a52.2,52.2,0,0,0,15.75,11.25,133.67,133.67,0,0,0,22,8.25q12.25,3.5,24.25,7.5,48,16,70.25,42.75t22.25,69.75q0,29-9.75,52.5a109.48,109.48,0,0,1-28.5,40.25q-18.75,16.76-46,26t-61.75,9.25q-71.51,0-132.5-42.5l42-79q22,19.5,43.5,29t42.5,9.5q24,0,35.75-11t11.75-25a33.79,33.79,0,0,0-3-14.75,32,32,0,0,0-10-11.5,80.26,80.26,0,0,0-18.25-9.75q-11.25-4.5-27.25-10-19-6-37.25-13.25a117,117,0,0,1-32.5-19.25,89.34,89.34,0,0,1-23-30.25q-8.75-18.25-8.75-46.25t9.25-50.75a112.72,112.72,0,0,1,26-39q16.75-16.24,41-25.25t54.25-9a237.61,237.61,0,0,1,58.5,7.75,258.45,258.45,0,0,1,58.5,22.75Z"/><path class="cls-1" d="M2159.16,772.69l-137.5-196h117l70,103,69.5-103h117l-138,196v181h-98Z"/><path class="cls-1" d="M2723.66,702.69q-34-41.5-84-41.5a102.82,102.82,0,0,0-40.75,8,97.62,97.62,0,0,0-53.5,54.5,107.44,107.44,0,0,0-7.75,41,108.74,108.74,0,0,0,7.75,41.5,100,100,0,0,0,53.75,55,99.62,99.62,0,0,0,40,8q47,0,84.5-40v116l-10,3.5a290,290,0,0,1-42,11.75,203.55,203.55,0,0,1-38.5,3.75,196.8,196.8,0,0,1-137.75-56.25,206.31,206.31,0,0,1-43.75-63.5q-16.5-36.75-16.5-80.25t16.25-79.75a199.12,199.12,0,0,1,182.25-118.25,207,207,0,0,1,44.25,4.75,269.11,269.11,0,0,1,45.75,14.75Z"/><path class="cls-1" d="M2949.65,722.19h141.5V576.69h98v377h-98V798.19h-141.5v155.5h-98v-377h98Z"/><path class="cls-1" d="M3301.15,765.19q0-42,15.5-78.25a195.17,195.17,0,0,1,43-63.25q27.49-27,65.75-42.25t84.25-15.25q45.49,0,84,15.25t66.25,42.25a193.43,193.43,0,0,1,43.25,63.25q15.49,36.26,15.5,78.25t-15.5,78.25a193.35,193.35,0,0,1-43.25,63.25q-27.75,27-66.25,42.25t-84,15.25q-46,0-84.25-15.25t-65.75-42.25a195.09,195.09,0,0,1-43-63.25Q3301.14,807.2,3301.15,765.19Zm102.5,0a100.37,100.37,0,0,0,8.5,41.5,103.79,103.79,0,0,0,56.75,54.75,109.05,109.05,0,0,0,115.5-21.75,103,103,0,0,0,23.25-33,105.56,105.56,0,0,0,0-83,103.2,103.2,0,0,0-23.25-33,110,110,0,0,0-115.5-21.75,103.79,103.79,0,0,0-56.75,54.75A100.39,100.39,0,0,0,3403.65,765.19Z"/></svg>